# xmcd
#
# Track frame offsets: 
#        150
#        2570
#        16920
#        38154
#        57302
#        79470
#        99405
#        119393
#        137389
#        156157
#        174382
#        195316
#        214632
#        233265
#        248942
#        272200
#        275388
#        296318
#        319644
#
# Disc length: 4448 seconds
#
# Revision: 1
# Processed by: cddbd v1.5.2PL0 Copyright (c) Steve Scherf et al.
# Submitted via: ExactAudioCopyFreeDBPlugin 1.0
#
DISCID=f4115e13
DTITLE=Huge and Mode - Pummien Miljonääri
DYEAR=2010
DGENRE=Rap
TTITLE0=Introineen
TTITLE1=Pilvet Ladontaa
TTITLE2=Kaupunkiin
TTITLE3=Getonit
TTITLE4=Flowretten Syndrooma
TTITLE5=Datablues
TTITLE6=Hetekka Haze
TTITLE7=Tunne Kuollut
TTITLE8=Räimettäs
TTITLE9=Duuni Jazz (Mono)
TTITLE10=Mitä Sä Haluut
TTITLE11=Ajatelmia
TTITLE12=Don Juon
TTITLE13=Älä Leiki Ittelläs
TTITLE14=Sanatukotus
TTITLE15=Taantumakasvo
TTITLE16=Mania
TTITLE17=Varjosta Aurinkoon
TTITLE18=Lopputekstit
EXTD=
EXTT0=
EXTT1=
EXTT2=
EXTT3=
EXTT4=
EXTT5=
EXTT6=
EXTT7=
EXTT8=
EXTT9=
EXTT10=
EXTT11=
EXTT12=
EXTT13=
EXTT14=
EXTT15=
EXTT16=
EXTT17=
EXTT18=
PLAYORDER=
